<svg xmlns="http://www.w3.org/2000/svg" width="440" height="251.38" viewBox="0 0 440 251.38"><defs><style>.cls-1{fill:#f4cc36;}.cls-2{fill:#ffda52;}.cls-3{fill:#282460;}.cls-4{fill:#fff;}</style></defs><title>Asset 3</title><g id="Layer_2" data-name="Layer 2"><g id="Layer_1-2" data-name="Layer 1"><rect class="cls-1" y="202.5" width="181.04" height="48.88"/><path class="cls-1" d="M362,127.5H186V251.38H212.5V203.47a7.26,7.26,0,0,1-.06-.93,7.53,7.53,0,0,1,14.17-3.66,7.42,7.42,0,0,1,.95,3.66,7.26,7.26,0,0,1-.06.93v47.91H440V205a2.5,2.5,0,0,1-1.23-.67Z"/><path class="cls-1" d="M181,110.24,72.56,1.77A2.53,2.53,0,0,1,71.83,0H40.4A40.4,40.4,0,0,0,0,40.4V197.5H181Z"/><path class="cls-1" d="M186,109.21V122.5H363a2.51,2.51,0,0,1,1.77.73L440,198.47V72.94L367.06,0H77.87L185.3,107.44A2.5,2.5,0,0,1,186,109.21Z"/><path class="cls-2" d="M181,251.38h5V127.5H362l76.81,76.81A2.5,2.5,0,0,0,440,205v-6.51l-75.23-75.24a2.51,2.51,0,0,0-1.77-.73H186V109.21a2.5,2.5,0,0,0-.74-1.77L77.87,0h-6a2.53,2.53,0,0,0,.73,1.77L181,110.24V197.5H0v5H181Z"/><path class="cls-3" d="M220,195a7.54,7.54,0,0,1,6.61,3.9,7.5,7.5,0,0,0-13.23,0A7.55,7.55,0,0,1,220,195Z"/><path class="cls-3" d="M220,210.1a7.56,7.56,0,0,1-7.5-6.63v47.91h15V203.47A7.56,7.56,0,0,1,220,210.1Zm.75,33a.75.75,0,1,1-1.5,0V234a.75.75,0,1,1,1.5,0Zm0-18.09a.75.75,0,0,1-1.5,0V216a.75.75,0,0,1,1.5,0Z"/><path class="cls-4" d="M220,233.29a.75.75,0,0,0-.75.75v9.05a.75.75,0,1,0,1.5,0V234A.76.76,0,0,0,220,233.29Z"/><path class="cls-4" d="M220,215.2a.75.75,0,0,0-.75.75V225a.75.75,0,0,0,1.5,0V216A.76.76,0,0,0,220,215.2Z"/><path class="cls-4" d="M220,210.1a7.56,7.56,0,0,0,7.5-6.63,7.26,7.26,0,0,0,.06-.93,7.42,7.42,0,0,0-.95-3.66,7.56,7.56,0,0,0-14.17,3.66,7.26,7.26,0,0,0,.06.93A7.56,7.56,0,0,0,220,210.1Z"/></g></g></svg>