<svg xmlns="http://www.w3.org/2000/svg" width="440" height="250.87" viewBox="0 0 440 250.87"><defs><style>.cls-1{fill:#f4cc36;}.cls-2{fill:#ffda52;}.cls-3{fill:#282460;}.cls-4{fill:#fff;}</style></defs><title>Asset 4</title><g id="Layer_2" data-name="Layer 2"><g id="Layer_1-2" data-name="Layer 1"><path class="cls-1" d="M198.5,54.41c5.82,0,9.86-1.29,12-3.83,2.94-3.45,2.1-8.82,2.09-8.88a7,7,0,0,1-.11-1.29V0H186V54.41Z"/><path class="cls-1" d="M139.29,162.61c-6.64-5.19-9.67-13.46-10-19.78,0-.14,0-.28,0-.42V85.16c0-10.51,3.16-18.61,9.38-24.09,8.36-7.34,19-6.92,21.76-6.66H181V0H0V250.87H51Z"/><polygon class="cls-1" points="58.1 250.87 140.51 250.87 140.51 168.46 58.1 250.87"/><path class="cls-1" d="M181,69.41H160a7.73,7.73,0,0,1-1-.06s-6.44-.66-10.57,3.05c-2.8,2.51-4.22,6.8-4.22,12.76v57c.18,2.09,1.13,7.55,5.92,9.6L181,120.86Z"/><path class="cls-1" d="M208.77,168.81c-3.13-2.46-8-1.5-8-1.49a7.5,7.5,0,0,1-1.76.21H154.37a25.86,25.86,0,0,1-8.86-1.48v84.82h67.12v-69.7C212.63,176.92,212,171.33,208.77,168.81Z"/><path class="cls-1" d="M227.63,181.17v69.7H440V183.73a31.49,31.49,0,0,0-7.81-20.82H223.25C226.16,167.64,227.63,173.74,227.63,181.17Z"/><path class="cls-1" d="M222.11,60.1C217,66.28,209,69.41,198.5,69.41H186V121.9a2.47,2.47,0,0,1-.74,1.76l-28.87,28.87h41.83c3.14-.55,12.21-1.47,19.79,4.49.36.29.7.58,1,.89H426.66a31.49,31.49,0,0,0-18.33-5.85h4.9A26.26,26.26,0,0,1,387,125.8V72.27A26.27,26.27,0,0,1,413.23,46H440V0H227.5V39.84C227.9,42.8,228.56,52.35,222.11,60.1Z"/><path class="cls-2" d="M223.25,162.91H432.19a31.27,31.27,0,0,0-5.53-5H219.09A22.1,22.1,0,0,1,223.25,162.91Z"/><path class="cls-2" d="M139.29,162.61,51,250.87H58.1l82.41-82.41v82.41h5V166.05A22.4,22.4,0,0,1,139.29,162.61Z"/><rect class="cls-2" x="181.04" width="5" height="54.41"/><path class="cls-2" d="M186,121.9V69.41h-5v51.45l-30.87,30.87a10.48,10.48,0,0,0,4.2.8h2.06l28.87-28.87A2.47,2.47,0,0,0,186,121.9Z"/><path class="cls-3" d="M212.61,41.7c0,.06.85,5.43-2.09,8.88-2.16,2.54-6.2,3.83-12,3.83H160.39c-2.77-.26-13.4-.68-21.76,6.66-6.22,5.48-9.38,13.58-9.38,24.09v57.25c0,.14,0,.28,0,.42.36,6.32,3.39,14.59,10,19.78a22.4,22.4,0,0,0,6.22,3.44,25.86,25.86,0,0,0,8.86,1.48H199a7.5,7.5,0,0,0,1.76-.21c.05,0,4.88-1,8,1.49s3.86,8.11,3.86,12.36v69.7h6.75v-4.53a.75.75,0,0,1,1.5,0v4.53h6.75v-69.7c0-7.43-1.47-13.53-4.38-18.26a22.1,22.1,0,0,0-4.16-5c-.34-.31-.68-.6-1-.89-7.58-6-16.65-5-19.79-4.49H154.37a10.48,10.48,0,0,1-4.2-.8c-4.79-2-5.74-7.51-5.92-9.6v-57c0-6,1.42-10.25,4.22-12.76C152.6,68.69,159,69.35,159,69.35a7.73,7.73,0,0,0,1,.06h38.5c10.53,0,18.48-3.13,23.61-9.31,6.45-7.75,5.79-17.3,5.39-20.26V0h-15V40.41A7,7,0,0,0,212.61,41.7ZM136,97.85a.75.75,0,0,1,1.5,0v9.06a.75.75,0,0,1-1.5,0ZM136,116a.75.75,0,1,1,1.5,0V125a.75.75,0,0,1-1.5,0Zm.91,27.92h-.09a.75.75,0,0,1-.74-.66c-.06-.5-.08-.78-.08-.78v-8.38a.75.75,0,0,1,1.5,0v8.34s0,.24.07.64A.75.75,0,0,1,136.91,143.88Zm.59-58.72V88.8a.75.75,0,1,1-1.5,0V85.16a39.71,39.71,0,0,1,.37-5.49.75.75,0,1,1,1.49.21A36.71,36.71,0,0,0,137.5,85.16Zm83.38,152.11a.75.75,0,0,1-1.5,0v-9.06a.75.75,0,0,1,1.5,0Zm0-18.11a.75.75,0,0,1-1.5,0V210.1a.75.75,0,0,1,1.5,0Zm0-18.11a.75.75,0,0,1-1.5,0V192a.75.75,0,0,1,1.5,0Zm-1.54-27.86a.76.76,0,0,1,.89.6,39,39,0,0,1,.65,7.38v1.76a.75.75,0,0,1-1.5,0v-1.76a36.73,36.73,0,0,0-.63-7.09A.76.76,0,0,1,219.34,173.19ZM208.1,160.27a.76.76,0,0,1,1-.49,15,15,0,0,1,7.61,5.43.75.75,0,0,1-.15,1,.76.76,0,0,1-.45.15.74.74,0,0,1-.6-.31,13.63,13.63,0,0,0-6.87-4.89A.75.75,0,0,1,208.1,160.27Zm-17.29-1h8.1c.14,0,.43-.09.84-.15a.76.76,0,0,1,.86.63.75.75,0,0,1-.63.85c-.5.08-.79.15-.81.15a.47.47,0,0,1-.17,0h-8.19a.75.75,0,0,1,0-1.5Zm-18.11,0h9.05a.75.75,0,0,1,0,1.5H172.7a.75.75,0,0,1,0-1.5Zm-18.12,0h9.06a.75.75,0,0,1,0,1.5h-9.06a.75.75,0,0,1,0-1.5Zm-8.35-1.89a.75.75,0,0,1-.36,1.41.8.8,0,0,1-.36-.09,16.76,16.76,0,0,1-6.57-6.63.75.75,0,0,1,.29-1,.74.74,0,0,1,1,.28A15.14,15.14,0,0,0,146.23,157.39Zm.3-91.91a16.82,16.82,0,0,0-6,6.13.72.72,0,0,1-.65.38.74.74,0,0,1-.37-.1.75.75,0,0,1-.28-1,18.32,18.32,0,0,1,6.5-6.67.75.75,0,1,1,.78,1.28Zm17.17-2.82H160a18.25,18.25,0,0,0-2.12-.11,25.26,25.26,0,0,0-3.12.2h-.1a.75.75,0,0,1-.09-1.5,26.39,26.39,0,0,1,3.31-.21,19.92,19.92,0,0,1,2.21.11h3.61a.75.75,0,0,1,0,1.5Zm18.09,0h-9a.75.75,0,0,1,0-1.5h9a.75.75,0,0,1,0,1.5Zm18.12,0-1.41,0h-7.66a.75.75,0,0,1,0-1.5h7.66l1.36,0a.73.73,0,0,1,.77.72A.75.75,0,0,1,199.91,62.64ZM219.25,2.13a.75.75,0,1,1,1.5,0v9.05a.75.75,0,1,1-1.5,0Zm0,18.09a.75.75,0,0,1,1.5,0v9.05a.75.75,0,1,1-1.5,0Zm0,20.32a.57.57,0,0,1,0-.13v-2.1a.75.75,0,0,1,1.5,0v2A20,20,0,0,1,221,43.5a23.42,23.42,0,0,1-.34,4,.76.76,0,0,1-.74.62h-.13a.75.75,0,0,1-.61-.87,21.4,21.4,0,0,0,.32-3.7A18.43,18.43,0,0,0,219.26,40.54ZM215.64,55a.75.75,0,0,1,1.14,1A17.77,17.77,0,0,1,209,61.09a.67.67,0,0,1-.24,0,.75.75,0,0,1-.25-1.46A16.21,16.21,0,0,0,215.64,55Z"/><path class="cls-4" d="M208.05,60.63a.75.75,0,0,0,.71.5.67.67,0,0,0,.24,0A17.77,17.77,0,0,0,216.78,56a.75.75,0,0,0-1.14-1,16.21,16.21,0,0,1-7.13,4.69A.75.75,0,0,0,208.05,60.63Z"/><path class="cls-4" d="M220.13,227.46a.76.76,0,0,0-.75.75v9.06a.75.75,0,0,0,1.5,0v-9.06A.75.75,0,0,0,220.13,227.46Z"/><path class="cls-4" d="M220.13,209.35a.76.76,0,0,0-.75.75v9.06a.75.75,0,0,0,1.5,0V210.1A.75.75,0,0,0,220.13,209.35Z"/><path class="cls-4" d="M220.13,191.24a.75.75,0,0,0-.75.75v9.06a.75.75,0,0,0,1.5,0V192A.74.74,0,0,0,220.13,191.24Z"/><path class="cls-4" d="M219.38,182.93a.75.75,0,0,0,1.5,0v-1.76a39,39,0,0,0-.65-7.38.75.75,0,1,0-1.48.29,36.73,36.73,0,0,1,.63,7.09Z"/><path class="cls-4" d="M220.13,245.59a.75.75,0,0,0-.75.75v4.53h1.5v-4.53A.74.74,0,0,0,220.13,245.59Z"/><path class="cls-4" d="M140.25,151.34a.74.74,0,0,0-1-.28.75.75,0,0,0-.29,1,16.76,16.76,0,0,0,6.57,6.63.8.8,0,0,0,.36.09.75.75,0,0,0,.36-1.41A15.14,15.14,0,0,1,140.25,151.34Z"/><path class="cls-4" d="M145.75,64.2a18.32,18.32,0,0,0-6.5,6.67.75.75,0,0,0,.28,1,.74.74,0,0,0,.37.1.72.72,0,0,0,.65-.38,16.82,16.82,0,0,1,6-6.13.75.75,0,1,0-.78-1.28Z"/><path class="cls-4" d="M163.7,61.16h-3.61a19.92,19.92,0,0,0-2.21-.11,26.39,26.39,0,0,0-3.31.21.75.75,0,0,0,.09,1.5h.1a25.26,25.26,0,0,1,3.12-.2,18.25,18.25,0,0,1,2.12.11h3.7a.75.75,0,0,0,0-1.5Z"/><path class="cls-4" d="M199.86,61.14l-1.36,0h-7.66a.75.75,0,0,0,0,1.5h7.66l1.41,0a.75.75,0,0,0,.72-.78A.73.73,0,0,0,199.86,61.14Z"/><path class="cls-4" d="M220,30a.76.76,0,0,0,.75-.75v-9a.75.75,0,0,0-1.5,0v9.05A.75.75,0,0,0,220,30Z"/><path class="cls-4" d="M219.77,48.07h.13a.76.76,0,0,0,.74-.62,23.42,23.42,0,0,0,.34-4,20,20,0,0,0-.23-3.16v-2a.75.75,0,0,0-1.5,0v2.1a.57.57,0,0,0,0,.13,18.43,18.43,0,0,1,.22,3,21.4,21.4,0,0,1-.32,3.7A.75.75,0,0,0,219.77,48.07Z"/><path class="cls-4" d="M220,11.93a.76.76,0,0,0,.75-.75v-9a.75.75,0,1,0-1.5,0v9.05A.75.75,0,0,0,220,11.93Z"/><path class="cls-4" d="M137.22,79a.75.75,0,0,0-.85.64,39.71,39.71,0,0,0-.37,5.49V88.8a.75.75,0,1,0,1.5,0V85.16a36.71,36.71,0,0,1,.36-5.28A.75.75,0,0,0,137.22,79Z"/><path class="cls-4" d="M137.5,134.07a.75.75,0,0,0-1.5,0v8.38s0,.28.08.78a.75.75,0,0,0,.74.66h.09a.75.75,0,0,0,.66-.83c0-.4-.07-.64-.07-.64Z"/><path class="cls-4" d="M136.75,107.66a.76.76,0,0,0,.75-.75V97.85a.75.75,0,0,0-1.5,0v9.06A.75.75,0,0,0,136.75,107.66Z"/><path class="cls-4" d="M136.75,125.76a.75.75,0,0,0,.75-.75V116a.75.75,0,1,0-1.5,0V125A.74.74,0,0,0,136.75,125.76Z"/><path class="cls-4" d="M208.59,161.21a13.63,13.63,0,0,1,6.87,4.89.74.74,0,0,0,.6.31.76.76,0,0,0,.45-.15.75.75,0,0,0,.15-1,15,15,0,0,0-7.61-5.43.75.75,0,1,0-.46,1.43Z"/><path class="cls-4" d="M181.79,61.16h-9a.75.75,0,0,0,0,1.5h9a.75.75,0,0,0,0-1.5Z"/><path class="cls-4" d="M190.81,160.78H199a.47.47,0,0,0,.17,0s.31-.07.81-.15a.75.75,0,0,0,.63-.85.76.76,0,0,0-.86-.63c-.41.06-.7.12-.84.15h-8.1a.75.75,0,0,0,0,1.5Z"/><path class="cls-4" d="M172.7,160.78h9.05a.75.75,0,0,0,0-1.5H172.7a.75.75,0,0,0,0,1.5Z"/><path class="cls-4" d="M154.58,160.78h9.06a.75.75,0,0,0,0-1.5h-9.06a.75.75,0,0,0,0,1.5Z"/></g></g></svg>