<svg xmlns="http://www.w3.org/2000/svg" width="440" height="250" viewBox="0 0 440 250"><defs><style>.cls-1{fill:#f4cc36;}.cls-2{fill:#ffda52;}.cls-3{fill:#282460;}.cls-4{fill:#fff;}</style></defs><title>Asset 5</title><g id="Layer_2" data-name="Layer 2"><g id="Layer_1-2" data-name="Layer 1"><rect class="cls-1" x="145.51" width="67.12" height="122.58"/><rect class="cls-1" x="189.83" y="127.58" width="22.8" height="72.33"/><path class="cls-1" d="M227.63,199.91h120a2.6,2.6,0,0,1,.74.11l91.35,28.3a75.32,75.32,0,0,0-75.08-69.24h12.79a62.5,62.5,0,0,1-54.3-31.5H227.63Z"/><path class="cls-1" d="M377.46,34H440V0H227.63V122.58h92.95A62.56,62.56,0,0,1,377.46,34Z"/><path class="cls-1" d="M212.63,204.91h-22.8v18.5a2.5,2.5,0,0,1-2.5,2.5H0V250H212.63Z"/><path class="cls-1" d="M439.18,233.38l-91.89-28.47H227.63V250H440V234.41c0-.31,0-.62,0-.93h-.07A2.33,2.33,0,0,1,439.18,233.38Z"/><path class="cls-1" d="M184.83,127.58H143a2.5,2.5,0,0,1-2.5-2.5V0H59L0,59V71.14l29.19,29.19a35,35,0,0,1,0,49.5L0,179v41.9H184.83Z"/><polygon class="cls-1" points="0 0 0 51.9 51.9 0 0 0"/><path class="cls-2" d="M189.83,223.41v-18.5h22.8v-5h-22.8V127.58h22.8v-5H145.51V0h-5V125.08a2.5,2.5,0,0,0,2.5,2.5h41.82v93.33H0v5H187.33A2.5,2.5,0,0,0,189.83,223.41Z"/><path class="cls-2" d="M347.66,199.91h-120v5H347.29l91.89,28.47a2.33,2.33,0,0,0,.74.11H440c0-1.74-.1-3.45-.24-5.16L348.4,200A2.6,2.6,0,0,0,347.66,199.91Z"/><polygon class="cls-2" points="51.9 0 0 51.9 0 58.97 58.97 0 51.9 0"/><path class="cls-2" d="M227.63,127.58h95.53q-1.4-2.43-2.58-5H227.63Z"/><path class="cls-3" d="M220.88,5.4a.75.75,0,1,1-1.5,0V0h-6.75V250h6.75v-.39a.75.75,0,0,1,1.5,0V250h6.75V0h-6.75Zm-1.5,9a.75.75,0,1,1,1.5,0v9a.75.75,0,1,1-1.5,0Zm0,18.09a.75.75,0,1,1,1.5,0v9a.75.75,0,0,1-1.5,0Zm0,18.09a.75.75,0,1,1,1.5,0v9a.75.75,0,1,1-1.5,0Zm0,18.08a.75.75,0,1,1,1.5,0v9.05a.75.75,0,0,1-1.5,0Zm0,18.09a.75.75,0,0,1,1.5,0v9a.75.75,0,1,1-1.5,0Zm0,18.09a.75.75,0,1,1,1.5,0v9a.75.75,0,0,1-1.5,0Zm.75,64.07a.76.76,0,0,1-.75-.75v-9.05a.75.75,0,1,1,1.5,0v9.05A.75.75,0,0,1,220.13,169Zm.75,8.29v9a.75.75,0,0,1-1.5,0v-9a.75.75,0,0,1,1.5,0Zm-.75-26.38a.76.76,0,0,1-.75-.75v-9.05a.75.75,0,0,1,1.5,0v9.05A.75.75,0,0,1,220.13,150.87Zm.75,89.69a.75.75,0,0,1-1.5,0v-9a.75.75,0,1,1,1.5,0Zm0-18.09a.75.75,0,1,1-1.5,0v-9a.75.75,0,0,1,1.5,0Zm0-18.09a.75.75,0,0,1-1.5,0v-9a.75.75,0,0,1,1.5,0Zm0-72.35a.75.75,0,0,1-1.5,0v-9a.75.75,0,0,1,1.5,0Z"/><path class="cls-4" d="M220.88,159.16a.75.75,0,1,0-1.5,0v9.05a.75.75,0,1,0,1.5,0Z"/><path class="cls-4" d="M220.13,114.69a.75.75,0,0,0,.75-.75v-9a.75.75,0,1,0-1.5,0v9A.76.76,0,0,0,220.13,114.69Z"/><path class="cls-4" d="M220.13,96.6a.75.75,0,0,0,.75-.75v-9a.75.75,0,0,0-1.5,0v9A.76.76,0,0,0,220.13,96.6Z"/><path class="cls-4" d="M220.13,78.51a.75.75,0,0,0,.75-.75V68.71a.75.75,0,1,0-1.5,0v9.05A.76.76,0,0,0,220.13,78.51Z"/><path class="cls-4" d="M220.13,24.24a.75.75,0,0,0,.75-.75v-9a.75.75,0,1,0-1.5,0v9A.76.76,0,0,0,220.13,24.24Z"/><path class="cls-4" d="M220.13,42.33a.75.75,0,0,0,.75-.75v-9a.75.75,0,1,0-1.5,0v9A.76.76,0,0,0,220.13,42.33Z"/><path class="cls-4" d="M220.13,194.59a.76.76,0,0,0-.75.75v9a.75.75,0,0,0,1.5,0v-9A.75.75,0,0,0,220.13,194.59Z"/><path class="cls-4" d="M220.13,176.5a.76.76,0,0,0-.75.75v9a.75.75,0,0,0,1.5,0v-9A.75.75,0,0,0,220.13,176.5Z"/><path class="cls-4" d="M220.13,212.68a.75.75,0,0,0-.75.75v9a.75.75,0,1,0,1.5,0v-9A.74.74,0,0,0,220.13,212.68Z"/><path class="cls-4" d="M220.13,248.86a.75.75,0,0,0-.75.75V250h1.5v-.39A.74.74,0,0,0,220.13,248.86Z"/><path class="cls-4" d="M220.88,141.07a.75.75,0,0,0-1.5,0v9.05a.75.75,0,0,0,1.5,0Z"/><path class="cls-4" d="M220.13,230.77a.75.75,0,0,0-.75.75v9a.75.75,0,0,0,1.5,0v-9A.74.74,0,0,0,220.13,230.77Z"/><path class="cls-4" d="M220.13,60.42a.75.75,0,0,0,.75-.75v-9a.75.75,0,1,0-1.5,0v9A.76.76,0,0,0,220.13,60.42Z"/><path class="cls-4" d="M220.13,6.15a.74.74,0,0,0,.75-.75V0h-1.5V5.4A.75.75,0,0,0,220.13,6.15Z"/><path class="cls-4" d="M220.13,122.23a.76.76,0,0,0-.75.75v9a.75.75,0,0,0,1.5,0v-9A.75.75,0,0,0,220.13,122.23Z"/></g></g></svg>