<svg xmlns="http://www.w3.org/2000/svg" width="442.42" height="250" viewBox="0 0 442.42 250"><defs><style>.cls-1{fill:#f4cc36;}.cls-2{fill:#ffda52;}.cls-3{fill:#282460;}.cls-4{fill:#fff;}</style></defs><title>Asset 6</title><g id="Layer_2" data-name="Layer 2"><g id="Layer_1-2" data-name="Layer 1"><path class="cls-1" d="M227.63,0V192.91h84.79V98.41a2.5,2.5,0,0,1,2.5-2.5H440V0Z"/><rect class="cls-1" x="317.42" y="100.91" width="122.58" height="92"/><path class="cls-1" d="M212.63,249.83V197.91H123a2.5,2.5,0,0,1-2.5-2.5V74.24H0V250H212.63Z"/><path class="cls-1" d="M125.5,71.74V192.91h87.13V0H0V69.24H123A2.5,2.5,0,0,1,125.5,71.74Z"/><rect class="cls-1" x="227.63" y="197.91" width="212.37" height="52.09"/><path class="cls-2" d="M120.5,195.41a2.5,2.5,0,0,0,2.5,2.5h89.63v-5H125.5V71.74a2.5,2.5,0,0,0-2.5-2.5H0v5H120.5Z"/><path class="cls-2" d="M312.42,98.41v94.5H227.63v5H440v-5H317.42v-92H440a2.5,2.5,0,0,0,0-5H314.92A2.5,2.5,0,0,0,312.42,98.41Z"/><path class="cls-3" d="M220.88,8.65a.75.75,0,1,1-1.5,0V0h-6.75V250h15V0h-6.75Zm-1.5,9a.75.75,0,1,1,1.5,0v9a.75.75,0,1,1-1.5,0Zm0,18.09a.75.75,0,1,1,1.5,0v9a.75.75,0,0,1-1.5,0Zm0,18.09a.75.75,0,1,1,1.5,0v9a.75.75,0,1,1-1.5,0Zm0,18.08a.75.75,0,1,1,1.5,0V81a.75.75,0,0,1-1.5,0Zm0,18.09a.75.75,0,0,1,1.5,0v9a.75.75,0,1,1-1.5,0Zm0,18.09a.75.75,0,1,1,1.5,0v9a.75.75,0,0,1-1.5,0Zm0,18.09a.75.75,0,0,1,1.5,0v9a.75.75,0,0,1-1.5,0Zm0,18.09a.75.75,0,0,1,1.5,0v9.05a.75.75,0,0,1-1.5,0Zm0,18.09a.75.75,0,1,1,1.5,0v9.05a.75.75,0,1,1-1.5,0Zm0,18.09a.75.75,0,0,1,1.5,0v9a.75.75,0,0,1-1.5,0Zm1.5,63.31a.75.75,0,0,1-1.5,0v-9a.75.75,0,1,1,1.5,0Zm0-18.09a.75.75,0,1,1-1.5,0v-9a.75.75,0,0,1,1.5,0Zm0-27.13v9a.75.75,0,0,1-1.5,0v-9a.75.75,0,0,1,1.5,0Z"/><path class="cls-4" d="M220.13,81.76a.75.75,0,0,0,.75-.75V72a.75.75,0,1,0-1.5,0V81A.76.76,0,0,0,220.13,81.76Z"/><path class="cls-4" d="M220.13,99.85a.75.75,0,0,0,.75-.75v-9a.75.75,0,0,0-1.5,0v9A.76.76,0,0,0,220.13,99.85Z"/><path class="cls-4" d="M220.13,9.4a.74.74,0,0,0,.75-.75V0h-1.5V8.65A.75.75,0,0,0,220.13,9.4Z"/><path class="cls-4" d="M220.13,117.94a.75.75,0,0,0,.75-.75v-9a.75.75,0,1,0-1.5,0v9A.76.76,0,0,0,220.13,117.94Z"/><path class="cls-4" d="M220.13,63.67a.75.75,0,0,0,.75-.75v-9a.75.75,0,1,0-1.5,0v9A.76.76,0,0,0,220.13,63.67Z"/><path class="cls-4" d="M220.13,136a.75.75,0,0,0,.75-.75v-9a.75.75,0,0,0-1.5,0v9A.76.76,0,0,0,220.13,136Z"/><path class="cls-4" d="M220.13,172.21a.75.75,0,0,0,.75-.75v-9.05a.75.75,0,1,0-1.5,0v9.05A.76.76,0,0,0,220.13,172.21Z"/><path class="cls-4" d="M220.13,190.29a.74.74,0,0,0,.75-.75v-9a.75.75,0,0,0-1.5,0v9A.75.75,0,0,0,220.13,190.29Z"/><path class="cls-4" d="M220.13,234a.75.75,0,0,0-.75.75v9a.75.75,0,0,0,1.5,0v-9A.74.74,0,0,0,220.13,234Z"/><path class="cls-4" d="M220.13,27.49a.74.74,0,0,0,.75-.75v-9a.75.75,0,1,0-1.5,0v9A.75.75,0,0,0,220.13,27.49Z"/><path class="cls-4" d="M220.13,45.58a.75.75,0,0,0,.75-.75v-9a.75.75,0,1,0-1.5,0v9A.76.76,0,0,0,220.13,45.58Z"/><path class="cls-4" d="M220.13,215.93a.76.76,0,0,0-.75.75v9a.75.75,0,1,0,1.5,0v-9A.75.75,0,0,0,220.13,215.93Z"/><path class="cls-4" d="M220.13,154.12a.75.75,0,0,0,.75-.75v-9.05a.75.75,0,0,0-1.5,0v9.05A.76.76,0,0,0,220.13,154.12Z"/><path class="cls-4" d="M219.38,198.59v9a.75.75,0,0,0,1.5,0v-9a.75.75,0,0,0-1.5,0Z"/></g></g></svg>