<svg xmlns="http://www.w3.org/2000/svg" width="440" height="250" viewBox="0 0 440 250"><defs><style>.cls-1{fill:#f4cc36;}.cls-2{fill:#ffda52;}.cls-3{fill:#282460;}.cls-4{fill:#fff;}</style></defs><title>Asset 7</title><g id="Layer_2" data-name="Layer 2"><g id="Layer_1-2" data-name="Layer 1"><path class="cls-1" d="M222.83,202.05c10.16-8.58,23.2-7.66,26.53-7.26,3.41,0,7.67-.65,9.67-3.12a6.3,6.3,0,0,0,.51-.76H189.83V250h21.09V232.76C210.92,219.05,214.92,208.72,222.83,202.05Z"/><path class="cls-1" d="M189.83,139.16v46.75h70.69a7.45,7.45,0,0,0-.09-.95,7.35,7.35,0,0,1-.16-1.55V47.64c0-3.84-.92-6.67-2.73-8.42-2.49-2.39-6.63-2.76-8-2.72h-.38c-11.6,0-20.76-3.51-27.25-10.43-9.27-9.89-9.36-23.34-9.27-26.08H0V29.63H4.6a35.9,35.9,0,0,1,35.9,35.9v71.13H187.33A2.5,2.5,0,0,1,189.83,139.16Z"/><path class="cls-1" d="M275.18,190.91a21.81,21.81,0,0,1-4.5,10.21c-4.66,5.75-12,8.67-21.8,8.67a7.44,7.44,0,0,1-1.25-.1s-9.1-1.34-15.21,3.89c-4.31,3.7-6.5,10.15-6.5,19.18V250H346.08V190.91Z"/><path class="cls-1" d="M184.83,141.66H40.5v12.25a35.9,35.9,0,0,1-19.27,31.82h.82l-.87,0a35.65,35.65,0,0,1-11.36,3.68A22,22,0,0,0,0,207.78V250H184.83Z"/><path class="cls-1" d="M227.63,0c0,.16,0,.32,0,.49s-.42,9.4,5.3,15.41c3.51,3.7,8.91,5.58,16.06,5.61,2.05-.08,11.57,0,18.77,6.73,3.43,3.23,7.52,9.21,7.52,19.4V182.78a25.11,25.11,0,0,1,.26,3.13h69.52l1-1V173.29a37.29,37.29,0,0,1,22.52-34.24l64.67-41.37,6.1-3.9.63.65V0Z"/><path class="cls-2" d="M275.53,185.91a26.13,26.13,0,0,1-.35,5h70.9v-6l-1,1Z"/><path class="cls-2" d="M184.83,250h5V190.91h69.71a9.59,9.59,0,0,0,1-5H189.83V139.16a2.5,2.5,0,0,0-2.5-2.5H40.5v5H184.83Z"/><path class="cls-3" d="M275.53,185.91a25.11,25.11,0,0,0-.26-3.13V47.64c0-10.19-4.09-16.17-7.52-19.4-7.2-6.77-16.72-6.81-18.77-6.73-7.15,0-12.55-1.91-16.06-5.61-5.72-6-5.3-15.37-5.3-15.41s0-.33,0-.49h-15c-.09,2.74,0,16.19,9.27,26.08,6.49,6.92,15.65,10.43,27.25,10.43h.38c1.38,0,5.52.33,8,2.72,1.81,1.75,2.73,4.58,2.73,8.42V183.41a7.35,7.35,0,0,0,.16,1.55,7.45,7.45,0,0,1,.09.95,9.59,9.59,0,0,1-1,5,6.3,6.3,0,0,1-.51.76c-2,2.47-6.26,3.07-9.67,3.12-3.33-.4-16.37-1.32-26.53,7.26-7.91,6.67-11.91,17-11.91,30.71V250h6.75v-.21a.75.75,0,0,1,1.5,0V250h6.75V232.76c0-9,2.19-15.48,6.5-19.18,6.11-5.23,15.17-3.9,15.21-3.89a7.44,7.44,0,0,0,1.25.1c9.8,0,17.14-2.92,21.8-8.67a21.81,21.81,0,0,0,4.5-10.21A26.13,26.13,0,0,0,275.53,185.91ZM222.13,12.44a.67.67,0,0,1-.24,0,.76.76,0,0,1-.71-.51,34.52,34.52,0,0,1-1.77-9.06.76.76,0,0,1,.71-.8.78.78,0,0,1,.79.71,33.61,33.61,0,0,0,1.69,8.67A.76.76,0,0,1,222.13,12.44Zm11.59,13.32a.75.75,0,0,1-.66.39.8.8,0,0,1-.36-.09,23.88,23.88,0,0,1-7.11-5.95.75.75,0,0,1,1.17-.94,22.26,22.26,0,0,0,6.66,5.57A.75.75,0,0,1,233.72,25.76Zm16.83,4h0c-.81,0-1.31,0-1.33,0h0a42.7,42.7,0,0,1-7.75-.67.75.75,0,0,1,.27-1.48,40.68,40.68,0,0,0,7.45.65s.57,0,1.45,0a.75.75,0,0,1,0,1.5Zm17.22,52a.76.76,0,0,1,.75.75v9.07a.75.75,0,0,1-1.5,0V82.55A.76.76,0,0,1,267.77,81.8ZM267,73.49V64.42a.75.75,0,0,1,1.5,0v9.07a.75.75,0,1,1-1.5,0Zm.75,26.45a.76.76,0,0,1,.75.75v9.07a.75.75,0,0,1-1.5,0v-9.07A.76.76,0,0,1,267.77,99.94Zm0,18.14a.76.76,0,0,1,.75.75v9.07a.75.75,0,0,1-1.5,0v-9.07A.76.76,0,0,1,267.77,118.08Zm0,18.13a.76.76,0,0,1,.75.75V146a.75.75,0,0,1-1.5,0V137A.76.76,0,0,1,267.77,136.21Zm0,18.14a.76.76,0,0,1,.75.75v9.07a.75.75,0,0,1-1.5,0V155.1A.76.76,0,0,1,267.77,154.35Zm0,18.15a.75.75,0,0,1,.75.75v9.09a.75.75,0,1,1-1.5,0v-9.09A.75.75,0,0,1,267.77,172.5Zm-.07-127a.74.74,0,0,1,.79.72q0,.68,0,1.41v7.7a.75.75,0,1,1-1.5,0v-7.7q0-.69,0-1.35A.75.75,0,0,1,267.7,45.51ZM258.89,32a.75.75,0,1,1,.71-1.33,15.74,15.74,0,0,1,6.62,6.58.75.75,0,0,1-.31,1,.73.73,0,0,1-.35.09.75.75,0,0,1-.66-.4A14.22,14.22,0,0,0,258.89,32ZM219.17,232.76v8a.75.75,0,0,1-1.5,0v-8c0-.36,0-.72,0-1.07a.74.74,0,0,1,.76-.74.76.76,0,0,1,.74.76C219.17,232.06,219.17,232.41,219.17,232.76Zm3.9-18.14a30,30,0,0,0-3,8.26.75.75,0,0,1-.73.6.44.44,0,0,1-.16,0,.75.75,0,0,1-.58-.88,31.47,31.47,0,0,1,3.12-8.68.75.75,0,1,1,1.31.72ZM236.37,204a22.8,22.8,0,0,0-7.74,4,.75.75,0,0,1-.93-1.18,24.39,24.39,0,0,1,8.24-4.23.75.75,0,1,1,.43,1.44Zm17.85-1.33a35.58,35.58,0,0,1-5.34.38h-.12a26.07,26.07,0,0,0-3.67-.25.75.75,0,0,1,0-1.5h0a27,27,0,0,1,3.84.26,31.86,31.86,0,0,0,5.05-.37.75.75,0,1,1,.23,1.49Zm13.92-11.12a14.09,14.09,0,0,1-5.24,7.75.75.75,0,0,1-1-.15.75.75,0,0,1,.15-1,12.58,12.58,0,0,0,4.69-7,.75.75,0,0,1,1.45.4Z"/><path class="cls-4" d="M220.91,2.82a.78.78,0,0,0-.79-.71.76.76,0,0,0-.71.8A34.52,34.52,0,0,0,221.18,12a.76.76,0,0,0,.71.51.67.67,0,0,0,.24,0,.76.76,0,0,0,.47-.95A33.61,33.61,0,0,1,220.91,2.82Z"/><path class="cls-4" d="M267,146a.75.75,0,0,0,1.5,0V137a.75.75,0,0,0-1.5,0Z"/><path class="cls-4" d="M267,127.9a.75.75,0,0,0,1.5,0v-9.07a.75.75,0,1,0-1.5,0Z"/><path class="cls-4" d="M267,164.17a.75.75,0,0,0,1.5,0V155.1a.75.75,0,0,0-1.5,0Z"/><path class="cls-4" d="M267,182.34a.75.75,0,1,0,1.5,0v-9.09a.75.75,0,0,0-1.5,0Z"/><path class="cls-4" d="M250.59,28.27c-.88,0-1.44,0-1.45,0a40.68,40.68,0,0,1-7.45-.65.75.75,0,0,0-.27,1.48,42.7,42.7,0,0,0,7.75.67h0s.52,0,1.33,0h0a.75.75,0,0,0,0-1.5Z"/><path class="cls-4" d="M267,109.76a.75.75,0,0,0,1.5,0v-9.07a.75.75,0,0,0-1.5,0Z"/><path class="cls-4" d="M267,91.62a.75.75,0,0,0,1.5,0V82.55a.75.75,0,0,0-1.5,0Z"/><path class="cls-4" d="M264.9,37.93a.75.75,0,0,0,.66.4.73.73,0,0,0,.35-.09.75.75,0,0,0,.31-1,15.74,15.74,0,0,0-6.62-6.58.75.75,0,1,0-.71,1.33A14.22,14.22,0,0,1,264.9,37.93Z"/><path class="cls-4" d="M235.94,202.55a24.39,24.39,0,0,0-8.24,4.23.75.75,0,0,0-.12,1.06.75.75,0,0,0,1,.12,22.8,22.8,0,0,1,7.74-4,.75.75,0,1,0-.43-1.44Z"/><path class="cls-4" d="M222.77,213.6a.74.74,0,0,0-1,.3,31.47,31.47,0,0,0-3.12,8.68.75.75,0,0,0,.58.88.44.44,0,0,0,.16,0,.75.75,0,0,0,.73-.6,30,30,0,0,1,3-8.26A.75.75,0,0,0,222.77,213.6Z"/><path class="cls-4" d="M254,201.17a31.86,31.86,0,0,1-5.05.37,27,27,0,0,0-3.84-.26h0a.75.75,0,0,0,0,1.5,26.07,26.07,0,0,1,3.67.25h.12a35.58,35.58,0,0,0,5.34-.38.75.75,0,1,0-.23-1.49Z"/><path class="cls-4" d="M233.42,24.74a22.26,22.26,0,0,1-6.66-5.57.75.75,0,0,0-1.17.94,23.88,23.88,0,0,0,7.11,5.95.8.8,0,0,0,.36.09.75.75,0,0,0,.36-1.41Z"/><path class="cls-4" d="M218.44,231a.74.74,0,0,0-.76.74c0,.35,0,.71,0,1.07v8a.75.75,0,0,0,1.5,0v-8c0-.35,0-.7,0-1A.76.76,0,0,0,218.44,231Z"/><path class="cls-4" d="M267,55.34a.75.75,0,1,0,1.5,0v-7.7q0-.73,0-1.41a.75.75,0,1,0-1.5.06q0,.66,0,1.35Z"/><path class="cls-4" d="M267.77,74.24a.76.76,0,0,0,.75-.75V64.42a.75.75,0,0,0-1.5,0v9.07A.76.76,0,0,0,267.77,74.24Z"/><path class="cls-4" d="M218.42,249a.75.75,0,0,0-.75.75V250h1.5v-.21A.76.76,0,0,0,218.42,249Z"/><path class="cls-4" d="M267.61,190.62a.74.74,0,0,0-.92.52,12.58,12.58,0,0,1-4.69,7,.75.75,0,0,0,.45,1.35.76.76,0,0,0,.45-.15,14.09,14.09,0,0,0,5.24-7.75A.75.75,0,0,0,267.61,190.62Z"/></g></g></svg>