<svg xmlns="http://www.w3.org/2000/svg" width="440" height="250" viewBox="0 0 440 250"><defs><style>.cls-1{fill:#f4cc36;}.cls-2{fill:#ffda52;}.cls-3{fill:#282460;}.cls-4{fill:#fff;}</style></defs><title>Asset 8</title><g id="Layer_2" data-name="Layer 2"><g id="Layer_1-2" data-name="Layer 1"><path class="cls-1" d="M187.33,172.3a2.52,2.52,0,0,1-2.52-2.52V128a13.75,13.75,0,0,0-4.34,2.47c-3.82,3.28-5.76,9.06-5.76,17.18v47.79a7.2,7.2,0,0,1-.18,1.6s-1.07,5.73,2,9.47c2.83,3.44,8.56,4.27,13.05,4.32,3.39-.43,16.48-1.44,26.71,7.12,8,6.72,12.1,17.21,12.1,31.18v.9H346.08V172.3Z"/><path class="cls-1" d="M195.72,112.11c4.57,0,10.38-.89,13.28-4.41,3.18-3.85,2.08-9.73,2.07-9.78a7,7,0,0,1-.15-1.51V0H189.83V80.2a1.49,1.49,0,0,1,0,.21V111.9A35.19,35.19,0,0,1,195.72,112.11Z"/><rect class="cls-1" width="184.83" height="77.91"/><path class="cls-1" d="M213.4,249.1c0-9.32-2.26-15.94-6.72-19.67-6.1-5.11-15.17-3.76-15.26-3.74a8.2,8.2,0,0,1-1.32.11c-11.45,0-20-3.35-25.29-10-6.52-8.09-5.62-17.91-5.1-21.09V147.62c0-12.8,3.76-22.46,11.17-28.71a29.79,29.79,0,0,1,13.93-6.43V82.91H0V250H213.4Z"/><path class="cls-1" d="M225.92,0V95.74c.51,3.19,1.41,13.14-5.2,21.32-5.39,6.67-14,10.06-25.51,10.06a7.69,7.69,0,0,1-1.27-.11,20.65,20.65,0,0,0-4.09-.07v40.32H348.6a2.52,2.52,0,0,1,2.52,2.52V250H440V156.3A22.06,22.06,0,0,0,426.57,136H421.4a75.32,75.32,0,0,1-75.32-75.31V0Z"/><path class="cls-2" d="M184.81,169.78a2.52,2.52,0,0,0,2.52,2.52H346.08V250h5V169.78a2.52,2.52,0,0,0-2.52-2.52H189.85V126.94a19.32,19.32,0,0,0-5,1Z"/><path class="cls-2" d="M184.81,112.48a36.46,36.46,0,0,1,5-.58V80.41a1.49,1.49,0,0,0,0-.21V0h-5V77.91H0v5H184.81Z"/><path class="cls-3" d="M219.17,8.83a.75.75,0,1,1-1.5,0V0h-6.75V96.41a7,7,0,0,0,.15,1.51s1.11,5.93-2.07,9.78c-2.9,3.52-8.71,4.36-13.28,4.41a35.19,35.19,0,0,0-5.87-.21,36.46,36.46,0,0,0-5,.58,29.79,29.79,0,0,0-13.93,6.43c-7.41,6.25-11.17,15.91-11.17,28.71v47.11c-.52,3.18-1.42,13,5.1,21.09,5.33,6.63,13.84,10,25.29,10a8.2,8.2,0,0,0,1.32-.11c.09,0,9.16-1.37,15.26,3.74,4.46,3.73,6.72,10.35,6.72,19.67v.9h15v-.9c0-14-4.07-24.46-12.1-31.18-10.23-8.56-23.32-7.55-26.71-7.12-4.49-.05-10.22-.88-13.05-4.32-3.08-3.74-2-9.47-2-9.47a7.2,7.2,0,0,0,.18-1.6V147.62c0-8.12,1.94-13.9,5.76-17.18a13.75,13.75,0,0,1,4.34-2.47,19.32,19.32,0,0,1,5-1,20.65,20.65,0,0,1,4.09.07,7.69,7.69,0,0,0,1.27.11c11.54,0,20.12-3.39,25.51-10.06,6.61-8.18,5.71-18.13,5.2-21.32V0h-6.75Zm.62,229.38a.77.77,0,0,1,.89.58,50.12,50.12,0,0,1,1,9.11.75.75,0,0,1-.74.77h0a.75.75,0,0,1-.75-.74,48.72,48.72,0,0,0-.93-8.83A.74.74,0,0,1,219.79,238.21ZM210.7,223a.75.75,0,0,1,1.05-.11,23.43,23.43,0,0,1,5.86,7.18.76.76,0,0,1-.3,1,.8.8,0,0,1-.36.09.76.76,0,0,1-.66-.4,22.23,22.23,0,0,0-5.48-6.73A.75.75,0,0,1,210.7,223Zm-16.3-5.78h0a31.32,31.32,0,0,1,9.14,1.34.75.75,0,0,1-.22,1.47.83.83,0,0,1-.22,0,29.73,29.73,0,0,0-8.71-1.28.75.75,0,0,1-.75-.75A.76.76,0,0,1,194.4,217.25ZM176,215.45a.75.75,0,0,1,1-.35,26.58,26.58,0,0,0,8.46,2.22.74.74,0,0,1,.66.82.75.75,0,0,1-.74.67h-.09a27.94,27.94,0,0,1-8.93-2.36A.74.74,0,0,1,176,215.45Zm-9.55-68.14a.75.75,0,0,1,.75-.74h0a.75.75,0,0,1,.75.75v9a.75.75,0,0,1-1.5,0Zm0,18.1a.75.75,0,0,1,1.5,0v9a.75.75,0,0,1-1.5,0Zm0,18.09a.75.75,0,0,1,1.5,0v9a.75.75,0,0,1-1.5,0Zm3.81,27.16a.72.72,0,0,1-.42.13.76.76,0,0,1-.62-.33,18.85,18.85,0,0,1-3-8.82.75.75,0,1,1,1.49-.15,17.31,17.31,0,0,0,2.77,8.13A.75.75,0,0,1,170.27,210.66Zm1.64-80.35a27,27,0,0,0-3.08,8.19.74.74,0,0,1-.73.59h-.16a.77.77,0,0,1-.58-.89,28.43,28.43,0,0,1,3.26-8.64.75.75,0,0,1,1-.27A.76.76,0,0,1,171.91,130.31Zm13.93-9.62a22.31,22.31,0,0,0-8,3.31.74.74,0,0,1-.42.13.75.75,0,0,1-.42-1.37,23.76,23.76,0,0,1,8.58-3.54.76.76,0,0,1,.89.59A.75.75,0,0,1,185.84,120.69Zm18-1.19a39.91,39.91,0,0,1-8.62.87h-.13l-.47-.07a.75.75,0,1,1,.18-1.49l.48.07a39.14,39.14,0,0,0,8.24-.83.75.75,0,1,1,.32,1.46ZM217.67,17.88a.75.75,0,1,1,1.5,0v9a.75.75,0,0,1-1.5,0Zm0,18.09a.75.75,0,0,1,1.5,0v9a.75.75,0,1,1-1.5,0Zm0,18.09a.75.75,0,0,1,1.5,0v9a.75.75,0,0,1-1.5,0Zm0,18.09a.75.75,0,0,1,1.5,0v9a.75.75,0,1,1-1.5,0Zm.37,36.27a16.91,16.91,0,0,1-5.7,7.39.75.75,0,0,1-1-.16.75.75,0,0,1,.15-1.05,15.34,15.34,0,0,0,5.2-6.74.74.74,0,0,1,1-.42A.76.76,0,0,1,218,108.42Zm.73-8.41h0a.74.74,0,0,1-.74-.71,17.47,17.47,0,0,0-.31-2.73.92.92,0,0,1,0-.16V90.24a.75.75,0,1,1,1.5,0v6.09a19.38,19.38,0,0,1,.31,2.9A.75.75,0,0,1,218.77,100Z"/><path class="cls-4" d="M176.37,216.45a27.94,27.94,0,0,0,8.93,2.36h.09a.75.75,0,0,0,.74-.67.74.74,0,0,0-.66-.82A26.58,26.58,0,0,1,177,215.1a.75.75,0,0,0-1,.35A.74.74,0,0,0,176.37,216.45Z"/><path class="cls-4" d="M167.21,193.29a.75.75,0,0,0,.75-.75v-9a.75.75,0,0,0-1.5,0v9A.74.74,0,0,0,167.21,193.29Z"/><path class="cls-4" d="M218.42,9.58a.75.75,0,0,0,.75-.75V0h-1.5V8.83A.74.74,0,0,0,218.42,9.58Z"/><path class="cls-4" d="M220.14,247.93a.75.75,0,0,0,.75.74h0a.75.75,0,0,0,.74-.77,50.12,50.12,0,0,0-1-9.11.77.77,0,0,0-.89-.58.74.74,0,0,0-.58.89A48.72,48.72,0,0,1,220.14,247.93Z"/><path class="cls-4" d="M167.71,201.49a.75.75,0,1,0-1.49.15,18.85,18.85,0,0,0,3,8.82.76.76,0,0,0,.62.33.72.72,0,0,0,.42-.13.75.75,0,0,0,.21-1A17.31,17.31,0,0,1,167.71,201.49Z"/><path class="cls-4" d="M194.4,218.75a29.73,29.73,0,0,1,8.71,1.28.83.83,0,0,0,.22,0,.75.75,0,0,0,.22-1.47,31.32,31.32,0,0,0-9.14-1.34h0a.76.76,0,0,0-.75.75A.75.75,0,0,0,194.4,218.75Z"/><path class="cls-4" d="M216.29,230.81a.76.76,0,0,0,.66.4.8.8,0,0,0,.36-.09.76.76,0,0,0,.3-1,23.43,23.43,0,0,0-5.86-7.18.75.75,0,0,0-.94,1.16A22.23,22.23,0,0,1,216.29,230.81Z"/><path class="cls-4" d="M167.21,157.11a.75.75,0,0,0,.75-.75v-9a.75.75,0,0,0-.75-.75h0a.75.75,0,0,0-.75.74v9.05A.74.74,0,0,0,167.21,157.11Z"/><path class="cls-4" d="M171.65,129.28a.75.75,0,0,0-1,.27,28.43,28.43,0,0,0-3.26,8.64.77.77,0,0,0,.58.89h.16a.74.74,0,0,0,.73-.59,27,27,0,0,1,3.08-8.19A.76.76,0,0,0,171.65,129.28Z"/><path class="cls-4" d="M218.42,27.67a.75.75,0,0,0,.75-.75v-9a.75.75,0,1,0-1.5,0v9A.74.74,0,0,0,218.42,27.67Z"/><path class="cls-4" d="M217.62,107.44a.74.74,0,0,0-1,.42,15.34,15.34,0,0,1-5.2,6.74.75.75,0,0,0-.15,1.05.75.75,0,0,0,1,.16,16.91,16.91,0,0,0,5.7-7.39A.76.76,0,0,0,217.62,107.44Z"/><path class="cls-4" d="M218.42,81.94a.75.75,0,0,0,.75-.75v-9a.75.75,0,0,0-1.5,0v9A.74.74,0,0,0,218.42,81.94Z"/><path class="cls-4" d="M219.17,90.24a.75.75,0,1,0-1.5,0v6.17a.92.92,0,0,0,0,.16A17.47,17.47,0,0,1,218,99.3a.74.74,0,0,0,.74.71h0a.75.75,0,0,0,.71-.78,19.38,19.38,0,0,0-.31-2.9Z"/><path class="cls-4" d="M218.42,63.85a.75.75,0,0,0,.75-.75v-9a.75.75,0,0,0-1.5,0v9A.74.74,0,0,0,218.42,63.85Z"/><path class="cls-4" d="M167.21,175.2a.75.75,0,0,0,.75-.75v-9a.75.75,0,0,0-1.5,0v9A.74.74,0,0,0,167.21,175.2Z"/><path class="cls-4" d="M218.42,45.76a.75.75,0,0,0,.75-.75V36a.75.75,0,0,0-1.5,0v9A.74.74,0,0,0,218.42,45.76Z"/><path class="cls-4" d="M203.51,118a39.14,39.14,0,0,1-8.24.83l-.48-.07a.75.75,0,1,0-.18,1.49l.47.07h.13a39.91,39.91,0,0,0,8.62-.87.75.75,0,1,0-.32-1.46Z"/><path class="cls-4" d="M185.54,119.22a23.76,23.76,0,0,0-8.58,3.54.75.75,0,1,0,.84,1.24,22.31,22.31,0,0,1,8-3.31.75.75,0,0,0,.59-.88A.76.76,0,0,0,185.54,119.22Z"/></g></g></svg>