<svg xmlns="http://www.w3.org/2000/svg" width="440" height="250" viewBox="0 0 440 250"><defs><style>.cls-1{fill:#f4cc36;}.cls-2{fill:#ffda52;}.cls-3{fill:#282460;}.cls-4{fill:#fff;}</style></defs><title>Asset 9</title><g id="Layer_2" data-name="Layer 2"><g id="Layer_1-2" data-name="Layer 1"><path class="cls-1" d="M266.8,17.78a2.52,2.52,0,0,1,2.52-2.52h76.76V0H228.4V64.67c0,.25,0,.49,0,.74a7.57,7.57,0,0,1-15.13,0,8,8,0,0,1,.09-1.1V0H0V103.91H266.8Z"/><path class="cls-1" d="M351.12,17.78a2.52,2.52,0,0,1-2.52,2.52H271.84V166.07l162,64.93A40.13,40.13,0,0,0,440,209.6V0H351.12Z"/><path class="cls-1" d="M266.8,167.78V108.91H0V177l66.68,66.69a35.59,35.59,0,0,1,5,6.32H399.6a40.3,40.3,0,0,0,31.24-14.78l-162.46-65.1A2.52,2.52,0,0,1,266.8,167.78Z"/><path class="cls-2" d="M271.84,20.3H348.6a2.52,2.52,0,0,0,2.52-2.52V0h-5V15.26H269.32a2.52,2.52,0,0,0-2.52,2.52v86.13H0v5H266.8v58.87a2.52,2.52,0,0,0,1.58,2.34l162.46,65.1a40.56,40.56,0,0,0,3-4.22l-162-64.93Z"/><path class="cls-3" d="M213.4,64.31a7.56,7.56,0,0,1,15,.36V0h-15ZM220.15,7a.75.75,0,0,1,1.5,0V16a.75.75,0,0,1-1.5,0Zm0,18.09a.75.75,0,0,1,1.5,0v9a.75.75,0,0,1-1.5,0Zm0,18.09a.75.75,0,0,1,1.5,0v9a.75.75,0,0,1-1.5,0Z"/><path class="cls-4" d="M220.9,34.84a.75.75,0,0,0,.75-.75v-9a.75.75,0,0,0-1.5,0v9A.74.74,0,0,0,220.9,34.84Z"/><path class="cls-4" d="M220.9,16.76a.76.76,0,0,0,.75-.75V7a.75.75,0,0,0-1.5,0V16A.75.75,0,0,0,220.9,16.76Z"/><path class="cls-4" d="M220.9,52.93a.75.75,0,0,0,.75-.75v-9a.75.75,0,0,0-1.5,0v9A.74.74,0,0,0,220.9,52.93Z"/><path class="cls-4" d="M220.87,57.85a7.55,7.55,0,0,0-7.47,6.46,8,8,0,0,0-.09,1.1,7.57,7.57,0,0,0,15.13,0c0-.25,0-.49,0-.74A7.56,7.56,0,0,0,220.87,57.85Z"/></g></g></svg>